<?xml version="1.0" standalone="no"?>
<!DOCTYPE svg PUBLIC "-//W3C//DTD SVG 20010904//EN"
 "http://www.w3.org/TR/2001/REC-SVG-20010904/DTD/svg10.dtd">
<svg version="1.0" xmlns="http://www.w3.org/2000/svg"
 width="1280.000000pt" height="1280.000000pt" viewBox="0 0 1280.000000 1280.000000"
 preserveAspectRatio="xMidYMid meet">
<metadata>
Created by potrace 1.16, written by Peter Selinger 2001-2019
</metadata>
<g transform="translate(0.000000,1280.000000) scale(0.100000,-0.100000)"
fill="#fea32a" stroke="none">
<path d="M4190 10661 c-14 -5 -39 -15 -55 -24 -17 -9 -947 -933 -2067 -2054
-1455 -1455 -2042 -2049 -2053 -2075 -20 -49 -20 -167 0 -216 20 -48 4071
-4103 4130 -4134 22 -11 67 -23 101 -26 114 -9 204 39 259 139 l30 54 3 318
c3 270 1 327 -13 375 -16 57 -21 62 -1408 1450 l-1392 1392 5421 0 c4752 0
5427 2 5470 15 65 19 131 76 160 139 24 50 24 55 24 386 0 331 0 336 -24 386
-29 63 -95 120 -160 139 -43 13 -718 15 -5470 15 l-5421 0 1392 1393 c1387
1387 1392 1392 1408 1449 14 48 16 105 13 375 l-3 318 -29 53 c-34 61 -85 106
-146 127 -45 16 -128 19 -170 6z"/>
</g>
</svg>
