<?xml version="1.0"?>
<svg xmlns="http://www.w3.org/2000/svg" id="Outline" viewBox="0 0 512 512" width="512" height="512"><path d="M256,448a8,8,0,0,0,8-8V251.313L397.417,384.73h0l.008.009h0a8,8,0,0,0,11.3-.009A215.993,215.993,0,1,0,103.27,79.27,216,216,0,0,0,256,448Zm19.313-224L381.156,118.157A167.84,167.84,0,0,1,425,224ZM425,240a167.84,167.84,0,0,1-43.84,105.843L275.313,240ZM264,212.687V63a167.841,167.841,0,0,1,105.843,43.84Zm-16,0L142.157,106.844A167.84,167.84,0,0,1,248,63ZM236.687,224H87a167.841,167.841,0,0,1,43.84-105.843Zm0,16L130.844,345.843A167.84,167.84,0,0,1,87,240ZM130.837,368.477A183.721,183.721,0,0,0,248,417.005v14.839a198.42,198.42,0,0,1-127.641-52.889ZM248,401a167.841,167.841,0,0,1-105.843-43.84L248,251.314Zm144.477-43.833A183.721,183.721,0,0,0,441.005,240h14.827a198.4,198.4,0,0,1-52.869,127.649ZM441.005,224a183.724,183.724,0,0,0-48.528-117.163l10.476-10.476A198.4,198.4,0,0,1,455.829,224ZM381.163,95.523A183.721,183.721,0,0,0,264,47V32.171A198.4,198.4,0,0,1,391.639,85.047ZM248,47A183.724,183.724,0,0,0,130.837,95.523L120.361,85.047A198.4,198.4,0,0,1,248,32.171ZM119.523,106.837A183.721,183.721,0,0,0,71,224H56.171A198.4,198.4,0,0,1,109.047,96.361ZM71,240a183.724,183.724,0,0,0,48.528,117.163l-10.476,10.476A198.4,198.4,0,0,1,56.171,240Z"/><path d="M421.657,437.657a8,8,0,0,0,0-11.314l-128-128A8,8,0,0,0,280,304V488a8,8,0,0,0,8,8C336.567,496,384.034,475.28,421.657,437.657ZM296,479.793V463.77c34.5-1.946,66.006-16.588,95.9-44.554l12.675,12.675C373.122,460.991,335.079,477.771,296,479.793ZM380.585,407.9c-26.65,24.789-54.454,37.877-84.585,39.833V323.314Z"/><path d="M328,432a24,24,0,1,0-24-24A24.027,24.027,0,0,0,328,432Zm0-32a8,8,0,1,1-8,8A8.009,8.009,0,0,1,328,400Z"/><rect x="192" y="88" width="16" height="16"/><rect x="112" y="280" width="16" height="16"/><rect x="392" y="176" width="16" height="16"/><rect x="304" y="360" width="16" height="16"/><path d="M192,136a24,24,0,1,0,24-24A24.027,24.027,0,0,0,192,136Zm24-8a8,8,0,1,1-8,8A8.009,8.009,0,0,1,216,128Z"/><path d="M136,216a32,32,0,1,0-32-32A32.036,32.036,0,0,0,136,216Zm0-48a16,16,0,1,1-16,16A16.019,16.019,0,0,1,136,168Z"/><path d="M304,144a32,32,0,1,0-32-32A32.036,32.036,0,0,0,304,144Zm0-48a16,16,0,1,1-16,16A16.019,16.019,0,0,1,304,96Z"/><path d="M408,280a32,32,0,1,0-32,32A32.036,32.036,0,0,0,408,280Zm-48,0a16,16,0,1,1,16,16A16.019,16.019,0,0,1,360,280Z"/><path d="M208,384a32,32,0,1,0-32-32A32.036,32.036,0,0,0,208,384Zm0-48a16,16,0,1,1-16,16A16.019,16.019,0,0,1,208,336Z"/><path d="M352,168a24,24,0,1,0,24,24A24.027,24.027,0,0,0,352,168Zm0,32a8,8,0,1,1,8-8A8.009,8.009,0,0,1,352,200Z"/><path d="M160,296a24,24,0,1,0-24-24A24.027,24.027,0,0,0,160,296Zm0-32a8,8,0,1,1-8,8A8.009,8.009,0,0,1,160,264Z"/></svg>
