<?xml version="1.0" encoding="iso-8859-1"?>
<!-- Generator: Adobe Illustrator 18.0.0, SVG Export Plug-In . SVG Version: 6.00 Build 0)  -->
<!DOCTYPE svg PUBLIC "-//W3C//DTD SVG 1.1//EN" "http://www.w3.org/Graphics/SVG/1.1/DTD/svg11.dtd">
<svg version="1.1" id="Capa_1" xmlns="http://www.w3.org/2000/svg" xmlns:xlink="http://www.w3.org/1999/xlink" x="0px" y="0px"
	 viewBox="0 0 354.467 354.467" style="enable-background:new 0 0 354.467 354.467;" xml:space="preserve">
<g>
	<path d="M177.233,108.966c15.424,0,31.37-2.731,42.59-7.963c0.92-0.135,1.807-0.542,2.515-1.247
		c7.718-4.144,12.636-9.642,12.636-16.406c0-16.638-29.75-25.616-57.742-25.616s-57.741,8.978-57.741,25.616
		S149.241,108.966,177.233,108.966z M170.58,99.799c-0.171-0.264-0.367-0.516-0.598-0.747l-27.11-27.11
		c3.808-1.382,8.315-2.585,13.451-3.487l31.122,31.122c-3.236,0.25-6.64,0.39-10.213,0.39
		C174.945,99.966,172.732,99.905,170.58,99.799z M225.975,83.35c0,2.354-2.14,5.022-6.139,7.522l-22.569-22.569
		C215.416,71.325,225.975,78.116,225.975,83.35z M183.097,66.862l28.056,28.057c-3.566,1.264-7.733,2.368-12.432,3.222
		c-0.027-0.028-0.045-0.061-0.073-0.089l-30.974-30.974c3.041-0.219,6.224-0.343,9.559-0.343
		C179.241,66.734,181.194,66.78,183.097,66.862z M134.266,76.064l22.209,22.209c-17.705-3.079-27.983-9.758-27.983-14.923
		C128.492,81.07,130.506,78.495,134.266,76.064z"/>
	<path d="M90.733,183.966c27.992,0,57.741-8.978,57.741-25.616s-29.749-25.616-57.741-25.616s-57.741,8.978-57.741,25.616
		S62.741,183.966,90.733,183.966z M59.325,170.747l18.047-14.577l18.691,18.691c-1.734,0.068-3.51,0.105-5.331,0.105
		C78.025,174.966,67.392,173.249,59.325,170.747z M139.474,158.35c0,5.515-11.725,12.756-31.697,15.496l-7.975-7.975l22.999-19.713
		C133.493,149.592,139.474,154.411,139.474,158.35z M112.042,143.527L93.42,159.489l-16.978-16.978
		c4.41-0.494,9.179-0.777,14.291-0.777C98.691,141.734,105.829,142.411,112.042,143.527z M65.515,144.313l5.458,5.458
		l-21.001,16.962l0.288,0.356c-5.363-2.831-8.268-5.998-8.268-8.739C41.992,153.636,50.558,147.662,65.515,144.313z"/>
	<path d="M267.97,110.785V83.354c0-0.013-0.004-0.024-0.004-0.037c-0.033-26.685-39.876-47.583-90.733-47.583
		c-50.878,0-90.733,20.916-90.733,47.617c0,0.001,0,0.002,0,0.003v0.001v27.431C37.662,111.908,0,132.394,0,158.35v112.767
		c0,26.701,39.854,47.617,90.733,47.617c41.081,0,74.97-13.638,86.5-32.945c11.53,19.307,45.419,32.945,86.501,32.945
		c50.879,0,90.733-20.915,90.733-47.617V158.35C354.467,132.395,316.807,111.909,267.97,110.785z M345.467,158.35
		c0,20.933-37.43,38.617-81.733,38.617S182,179.283,182,158.35s37.43-38.617,81.733-38.617S345.467,137.418,345.467,158.35z
		 M251.348,111.157c2.884-2.135,5.435-4.407,7.622-6.794v6.432C256.396,110.862,253.855,110.985,251.348,111.157z M177.233,143.679
		c-2.845-4.763-7.046-9.182-12.385-13.136c4.043,0.278,8.175,0.424,12.385,0.424s8.342-0.146,12.385-0.424
		C184.279,134.496,180.077,138.915,177.233,143.679z M177.233,44.733c44.304,0,81.734,17.684,81.734,38.617
		s-37.43,38.617-81.734,38.617c-44.304,0-81.733-17.684-81.733-38.617S132.929,44.733,177.233,44.733z M103.118,111.157
		c-2.506-0.172-5.045-0.296-7.618-0.362v-6.429C97.686,106.753,100.236,109.023,103.118,111.157z M90.733,119.733
		c44.304,0,81.733,17.684,81.733,38.617s-37.429,38.617-81.733,38.617C46.429,196.967,9,179.283,9,158.35
		S46.429,119.733,90.733,119.733z M90.733,309.733C46.429,309.733,9,292.049,9,271.117v-91.75
		c14.549,15.883,45.315,26.6,81.733,26.6c36.418,0,67.185-10.717,81.733-26.601v91.751
		C172.466,292.049,135.037,309.733,90.733,309.733z M345.467,271.117c0,20.933-37.43,38.617-81.733,38.617S182,292.049,182,271.117
		v-91.75c14.549,15.883,45.315,26.6,81.733,26.6s67.184-10.717,81.733-26.6V271.117z"/>
	<path d="M205.992,158.35c0,16.638,29.75,25.616,57.741,25.616c27.991,0,57.741-8.978,57.741-25.616s-29.75-25.616-57.741-25.616
		C235.742,132.734,205.992,141.712,205.992,158.35z M312.475,158.35c0,6.938-18.543,16.616-48.741,16.616
		c-30.198,0-48.741-9.678-48.741-16.616c0-6.939,18.543-16.616,48.741-16.616C293.932,141.734,312.475,151.412,312.475,158.35z"/>
	<path d="M233.166,158.4c0,9.027,19.151,10.375,30.567,10.375c11.416,0,30.566-1.348,30.566-10.375
		c0-9.027-19.15-10.376-30.566-10.376C252.317,148.024,233.166,149.373,233.166,158.4z M263.733,159.775
		c-6.976,0-12.5-0.622-16.329-1.375c3.829-0.753,9.353-1.376,16.329-1.376c6.975,0,12.499,0.622,16.328,1.376
		C276.232,159.153,270.709,159.775,263.733,159.775z"/>
</g>
<g>
</g>
<g>
</g>
<g>
</g>
<g>
</g>
<g>
</g>
<g>
</g>
<g>
</g>
<g>
</g>
<g>
</g>
<g>
</g>
<g>
</g>
<g>
</g>
<g>
</g>
<g>
</g>
<g>
</g>
</svg>
