<svg height="512pt" viewBox="-46 0 512 512" width="512pt" xmlns="http://www.w3.org/2000/svg"><path d="m299.195312 316c0 5.519531 4.480469 10 10 10 5.519532 0 10-4.480469 10-10s-4.480468-10-10-10c-5.519531 0-10 4.480469-10 10zm0 0"/><path d="m23.101562 157.832031c-4.15625 12.132813-8.085937 23.589844-11.550781 35.351563-7.792969 26.527344-15.042969 59.957031-9.730469 106.785156.03125.277344.074219.554688.128907.832031 12.355469 66.324219 23.0625 94.96875 9.757812 120.261719-7.648437 14.53125-16.296875 51.015625-2.714843 73.515625 4.800781 7.949219 14.414062 17.421875 32.984374 17.421875h94.121094c18.667969 0 28.324219-9.5 33.136719-17.46875 13.515625-22.382812 4.808594-58.894531-2.859375-73.46875-13.339844-25.332031-2.558594-54.121094 9.765625-120.261719.058594-.277343.101563-.558593.132813-.835937 5.300781-46.84375-1.949219-80.265625-9.742188-106.785156-3.554688-12.09375-7.675781-24.070313-11.65625-35.644532-8.160156-23.800781-19.179688-58.945312-24.136719-97.667968 4.789063-.742188 8.460938-4.871094 8.460938-9.867188v-20c0-16.542969-13.460938-30-30-30h-40c-16.542969 0-30 13.457031-30 30v20c0 4.890625 3.511719 8.953125 8.144531 9.820312-4.945312 38.746094-15.96875 73.902344-24.136719 97.707032zm126.277344 48.167969c6.597656 24.132812 11.425782 52.265625 7.066406 91.296875l-5.734374 28.703125h-123.339844l-5.726563-28.703125c-4.367187-39.019531.460938-67.15625 7.058594-91.296875zm2.734375 278.195312c-2.023437 3.351563-5.886719 7.804688-16.015625 7.804688h-94.121094c-10.019531 0-13.851562-4.429688-15.863281-7.757812-8.046875-13.332032-3.347656-41.25 3.292969-53.867188 14.355469-27.289062 6.953125-54.96875 1.957031-84.386719h115.347657c-5 29.480469-12.40625 57.097657 1.964843 84.386719 6.660157 12.660156 11.429688 40.585938 3.4375 53.820312zm-92.917969-454.195312c0-5.515625 4.488282-10 10-10h40c5.515626 0 10 4.484375 10 10v10h-60zm-17.070312 134.015625c8.625-25.136719 20.328125-62.535156 25.351562-104.015625h43.121094c5.03125 41.472656 16.738282 78.878906 25.363282 104.03125 2.476562 7.210938 5.007812 14.574219 7.402343 21.96875h-108.640625c2.296875-7.089844 7.402344-21.984375 7.402344-21.984375zm0 0"/><path d="m89.195312 306c22.058594 0 40-17.945312 40-40s-17.941406-40-40-40c-22.054687 0-40 17.945312-40 40s17.945313 40 40 40zm0-60c11.027344 0 20 8.972656 20 20s-8.972656 20-20 20c-11.027343 0-20-8.972656-20-20s8.972657-20 20-20zm0 0"/><path d="m353.667969 184.945312c4.941406-2.472656 6.941406-8.476562 4.472656-13.417968s-8.480469-6.941406-13.414063-4.472656l-40 20c-3.390624 1.695312-5.53125 5.15625-5.53125 8.945312v70h-70c-16.539062 0-30 13.457031-30 30 0 14.007812 9.65625 25.804688 22.660157 29.085938 2.296875 23.601562 13.625 139.917968 15.574219 159.925781 1.550781 15.386719 14.382812 26.988281 29.847656 26.988281h83.839844c15.46875 0 28.300781-11.601562 29.855468-27.023438 1.9375-19.902343 13.261719-136.21875 15.570313-159.890624 13.003906-3.28125 22.65625-15.078126 22.65625-29.085938 0-16.542969-13.457031-30-30-30h-70v-63.820312zm-2.550781 307.054688h-83.839844c-5.15625 0-9.433594-3.867188-9.949219-8.957031l-1.074219-11.042969h105.882813l-1.070313 11.007812c-.515625 5.125-4.792968 8.992188-9.949218 8.992188zm48.078124-196c0 5.515625-4.484374 10-10 10-25.558593 0-25.515624 0-40 0-5.519531 0-10 4.476562-10 10s4.480469 10 10 10h27.160157l-12.269531 126h-109.78125l-12.269532-126h27.160156c5.523438 0 10-4.476562 10-10s-4.476562-10-10-10c-7.4375 0-26.960937 0-40 0-5.515624 0-10-4.484375-10-10s4.484376-10 10-10h160c5.515626 0 10 4.484375 10 10zm0 0"/></svg>