<?xml version="1.0" encoding="iso-8859-1"?>
<!-- Generator: Adobe Illustrator 19.0.0, SVG Export Plug-In . SVG Version: 6.00 Build 0)  -->
<svg version="1.1" id="Capa_1" xmlns="http://www.w3.org/2000/svg" xmlns:xlink="http://www.w3.org/1999/xlink" x="0px" y="0px"
	 viewBox="0 0 429.76 429.76" style="enable-background:new 0 0 429.76 429.76;" xml:space="preserve">
<g>
	<g>
		<g>
			<path d="M183.354,120.92l0.04-0.04c-4.931,0.015-9.669,1.919-13.24,5.32l-0.48,0.4c-0.007,0.007-0.014,0.014-0.021,0.021
				c-7.555,7.566-7.545,19.824,0.021,27.379c0.007,0.007,0.014,0.014,0.021,0.021c7.566,7.555,19.824,7.545,27.379-0.021
				c3.664-3.648,5.717-8.61,5.701-13.781C202.741,129.527,194.046,120.887,183.354,120.92z M187.434,144.36
				c-2.209,2.209-5.791,2.209-8,0c-2.209-2.209-2.209-5.791,0-8l0.24-0.24c2.22-1.966,5.587-1.861,7.68,0.24h0.08
				c0.027,0.027,0.054,0.054,0.081,0.081C189.679,138.65,189.643,142.196,187.434,144.36z"/>
			<path d="M97.834,141.32c-3.624-3.636-8.547-5.679-13.68-5.68l-0.04-0.04c-4.895,0.015-9.603,1.88-13.181,5.22
				c-7.831,7.312-8.252,19.588-0.939,27.42l0.4,0.48c0.001,0.001,0.003,0.003,0.004,0.004c7.577,7.575,19.861,7.573,27.436-0.004
				c0.007-0.007,0.014-0.014,0.021-0.021C105.41,161.133,105.4,148.875,97.834,141.32z M88.394,159
				c-0.027,0.027-0.054,0.054-0.081,0.081c-2.209,2.164-5.755,2.128-7.919-0.081l-0.24-0.24c-1.459-2.024-1.403-4.769,0.137-6.732
				c1.909-2.433,5.43-2.858,7.863-0.948l0.24-0.08c0.027,0.027,0.054,0.054,0.081,0.081C90.639,153.29,90.603,156.836,88.394,159z"
				/>
			<path d="M98.994,258.88c-4.245-4.243-9.998-6.631-16-6.64c-5.794,0.012-11.363,2.246-15.56,6.24l-0.44,0.4
				c-8.786,8.857-8.786,23.142,0,32c8.673,8.627,22.631,8.804,31.52,0.4l0.48-0.4C107.78,282.023,107.78,267.738,98.994,258.88z
				 M89.434,281.24l-0.28,0.28c-3.519,3.205-8.929,3.099-12.32-0.24c-3.474-3.482-3.474-9.118,0-12.6l0.28-0.28
				c3.519-3.205,8.929-3.099,12.32,0.24c0.014,0.014,0.028,0.028,0.042,0.042C92.932,272.162,92.913,277.784,89.434,281.24z"/>
			<path d="M166.514,64.56l-0.4-0.48c-4.242-4.247-9.997-6.635-16-6.64l-0.04,0.04c-6.014,0.026-11.771,2.444-16,6.72
				c-8.83,8.839-8.83,23.161,0,32c8.849,8.808,23.151,8.808,32,0C174.79,87.524,174.985,73.476,166.514,64.56z M156.394,86.48
				c-3.482,3.474-9.118,3.474-12.6,0c-3.452-3.491-3.452-9.109,0-12.6c3.482-3.474,9.118-3.474,12.6,0l0.24,0.28
				C159.839,77.679,159.733,83.089,156.394,86.48z"/>
			<path d="M326.37,284.184c7.347,7.798,19.625,8.164,27.424,0.817l0.48-0.44c3.641-3.639,5.685-8.577,5.684-13.724
				c-0.002-10.714-8.69-19.398-19.404-19.396v0.04c-4.967-0.016-9.752,1.873-13.367,5.28
				C319.389,264.107,319.023,276.385,326.37,284.184z M336.691,266.786c2.197-2.145,5.717-2.103,7.862,0.094v-0.24
				c0.027,0.027,0.054,0.054,0.081,0.081c2.165,2.209,2.128,5.755-0.081,7.919l-0.24,0.24c-2.215,2.012-5.626,1.91-7.716-0.232
				C334.452,272.452,334.494,268.932,336.691,266.786z"/>
			<path d="M269.394,310.48l0.48-0.44c3.641-3.639,5.685-8.577,5.684-13.724c-0.002-10.708-8.68-19.387-19.385-19.395
				c-4.945-0.007-9.705,1.882-13.299,5.279l-0.44,0.4c-0.001,0.001-0.003,0.003-0.004,0.004c-7.575,7.577-7.573,19.861,0.004,27.436
				C249.816,317.471,261.774,317.666,269.394,310.48z M252.234,292.36l0.24-0.24c2.22-1.966,5.587-1.861,7.68,0.24
				c0.027,0.027,0.054,0.054,0.081,0.081c2.164,2.209,2.128,5.755-0.081,7.919l-0.24,0.24c-2.227,1.946-5.579,1.841-7.68-0.24
				c-0.027-0.027-0.054-0.054-0.081-0.081C249.989,298.07,250.025,294.525,252.234,292.36z"/>
			<path d="M238.495,367.981c7.566,7.555,19.824,7.545,27.379-0.021c0.007-0.007,0.014-0.014,0.021-0.021
				c7.555-7.566,7.545-19.824-0.021-27.379c-3.624-3.636-8.546-5.679-13.68-5.68c-4.926,0.004-9.663,1.893-13.24,5.28l-0.48,0.4
				c-0.007,0.007-0.014,0.014-0.021,0.021c-7.555,7.566-7.545,19.824,0.021,27.379C238.481,367.967,238.488,367.974,238.495,367.981
				z M248.234,350.36l0.24-0.24c2.227-1.946,5.579-1.841,7.68,0.24h0.08c0.027,0.027,0.054,0.054,0.081,0.081
				c2.164,2.209,2.128,5.755-0.081,7.919c-2.209,2.209-5.791,2.209-8,0C246.025,356.151,246.025,352.57,248.234,350.36z"/>
			<path d="M154.034,327.48c8.849,8.808,23.151,8.808,32,0c8.716-8.677,8.911-22.724,0.44-31.64l-0.4-0.48
				c-4.242-4.247-9.997-6.635-16-6.64v0.04c-6.028,0.015-11.801,2.434-16.04,6.72C145.204,304.32,145.204,318.641,154.034,327.48z
				 M163.754,305.16c3.482-3.474,9.118-3.474,12.6,0l0.24,0.28c3.205,3.519,3.099,8.929-0.24,12.32c-3.482,3.474-9.118,3.474-12.6,0
				C160.302,314.27,160.302,308.651,163.754,305.16z"/>
			<path d="M348.594,81.04c-73.845-73.717-193.435-73.717-267.28,0c-73.717,73.845-73.717,193.435,0,267.28
				c73.845,73.717,193.435,73.717,267.28,0C422.311,274.475,422.311,154.885,348.594,81.04z M207.874,39.76v158.4l-112-112
				C126.485,57.84,166.204,41.385,207.874,39.76z M86.314,95.96l112,112h-158.4C41.535,166.29,57.991,126.569,86.314,95.96z
				 M86.274,334c-28.323-30.609-44.779-70.329-46.4-112h158.56l-112,112H86.274z M208.234,389.96
				c-41.67-1.625-81.389-18.08-112-46.4l112-112V389.96z M343.754,95.92c28.323,30.609,44.779,70.329,46.4,112h-158.44l112-112
				H343.754z M221.914,39.8c41.671,1.621,81.391,18.077,112,46.4l-112,112V39.8z M334.114,343.64
				c-30.609,28.323-70.329,44.779-112,46.4V231.6l112,112V343.64z M343.674,333.8l-112-112h158.4
				C388.449,263.47,371.994,303.19,343.674,333.8z"/>
			<path d="M214.994,0c-57.016-0.105-111.721,22.526-152,62.88C22.689,103.155,0.03,157.788,0,214.767
				C-0.063,333.441,96.091,429.697,214.766,429.76c118.675,0.063,214.931-96.091,214.994-214.766
				C429.823,96.319,333.669,0.063,214.994,0z M357.084,357.05c-78.557,78.496-205.874,78.447-284.37-0.11
				s-78.447-205.874,0.11-284.37s205.874-78.447,284.37,0.11l-0.04,0.04c37.758,37.666,58.948,88.827,58.88,142.16
				C416.015,268.213,394.81,319.353,357.084,357.05z"/>
			<path d="M265.674,75.76c0.006,0,0.011,0.001,0.017,0.001c0.008,0,0.015-0.001,0.023-0.001H265.674z"/>
			<path d="M256.154,276.92c0.006,0,0.013,0.001,0.019,0.001c0.007,0,0.014-0.001,0.021-0.001H256.154z"/>
			<path d="M314.994,182.44l0.4,0.44c8.724,8.624,22.724,8.748,31.6,0.28l0.44-0.4c4.223-4.237,6.605-9.968,6.629-15.949
				c0.05-12.548-10.081-22.76-22.629-22.811c-6.026,0.047-11.784,2.494-16,6.8C306.718,159.477,306.523,173.525,314.994,182.44z
				 M325.114,160.44c3.482-3.474,9.118-3.474,12.6,0c3.474,3.482,3.474,9.118,0,12.6l-0.24,0.28c-3.529,3.194-8.94,3.071-12.32-0.28
				l-0.28-0.28C321.669,169.242,321.775,163.832,325.114,160.44z"/>
			<path d="M279.794,81.88l-0.4-0.44c-3.63-3.641-8.562-5.685-13.703-5.679c-4.975-0.059-9.781,1.803-13.417,5.199l-0.48,0.44
				c-0.001,0.001-0.003,0.003-0.004,0.004c-7.575,7.577-7.573,19.861,0.004,27.436c7.445,7.732,19.748,7.965,27.48,0.52
				C287.006,101.916,287.239,89.612,279.794,81.88z M269.617,98.172c-1.909,2.433-5.43,2.858-7.863,0.948
				c-0.027-0.027-0.054-0.054-0.081-0.081c-2.164-2.209-2.128-5.755,0.081-7.919l0.24-0.24c2.241-1.945,5.609-1.804,7.68,0.32
				l0.08,0.24C271.213,93.464,271.157,96.209,269.617,98.172z"/>
		</g>
	</g>
</g>
<g>
</g>
<g>
</g>
<g>
</g>
<g>
</g>
<g>
</g>
<g>
</g>
<g>
</g>
<g>
</g>
<g>
</g>
<g>
</g>
<g>
</g>
<g>
</g>
<g>
</g>
<g>
</g>
<g>
</g>
</svg>
